<?xml version="1.0" encoding="UTF-8" standalone="no"?>
<!-- Generator: Adobe Illustrator 13.0.2, SVG Export Plug-In . SVG Version: 6.00 Build 14948)  -->

<svg
   xmlns:dc="http://purl.org/dc/elements/1.1/"
   xmlns:cc="http://creativecommons.org/ns#"
   xmlns:rdf="http://www.w3.org/1999/02/22-rdf-syntax-ns#"
   xmlns:svg="http://www.w3.org/2000/svg"
   xmlns="http://www.w3.org/2000/svg"
   xmlns:sodipodi="http://sodipodi.sourceforge.net/DTD/sodipodi-0.dtd"
   xmlns:inkscape="http://www.inkscape.org/namespaces/inkscape"
   version="1.1"
   id="Layer_1"
   x="0px"
   y="0px"
   width="300"
   height="98"
   viewBox="0 0 299.99999 98.000007"
   enable-background="new 0 0 314.109 102.937"
   xml:space="preserve"
   inkscape:version="0.47 r22583"
   sodipodi:docname="title_logo.svg"><metadata
   id="metadata103"><rdf:RDF><cc:Work
       rdf:about=""><dc:format>image/svg+xml</dc:format><dc:type
         rdf:resource="http://purl.org/dc/dcmitype/StillImage" /></cc:Work></rdf:RDF></metadata><defs
   id="defs101"><inkscape:perspective
     sodipodi:type="inkscape:persp3d"
     inkscape:vp_x="0 : 51.468498 : 1"
     inkscape:vp_y="0 : 1000 : 0"
     inkscape:vp_z="314.10901 : 51.468498 : 1"
     inkscape:persp3d-origin="157.0545 : 34.312332 : 1"
     id="perspective105" /></defs><sodipodi:namedview
   pagecolor="#ffffff"
   bordercolor="#666666"
   borderopacity="1"
   objecttolerance="10"
   gridtolerance="10"
   guidetolerance="10"
   inkscape:pageopacity="0"
   inkscape:pageshadow="2"
   inkscape:window-width="1184"
   inkscape:window-height="765"
   id="namedview99"
   showgrid="false"
   inkscape:zoom="1.7095976"
   inkscape:cx="157.05449"
   inkscape:cy="51.468497"
   inkscape:window-x="0"
   inkscape:window-y="0"
   inkscape:window-maximized="0"
   inkscape:current-layer="Layer_1" />








<g
   id="g2911"
   transform="matrix(0.95507342,0,0,0.9520286,0.00284859,0)"><g
     id="g3">
	<g
   id="g5">
		<path
   id="path7"
   d="m 18.547,16.717 c 0.055,0.072 0.107,0.176 0.155,0.325 -0.873,-0.177 0.201,2.019 -1.094,1.329 -0.057,-0.481 0.23,-1.396 0.552,-1.685 -0.436,-0.844 -1.304,-1.163 -1.726,-2.023 0.444,-0.051 0.864,-0.133 0.728,-0.886 -0.456,0.095 -0.744,0.689 -0.728,-0.445 1.86,-0.116 2.218,0.68 3.359,0.641 V 3.283 c -0.385,0 -0.771,0 -1.155,0 C 19.054,1.888 18.067,2.207 17.909,1.509 18.593,1.403 17.702,0.78 18.274,0.622 18.505,1.401 19.238,1.571 19.792,1.96 V 0 h -7.146 v 34.729 c 0,0.432 -0.011,0.848 -0.03,1.255 0.161,-0.209 0.257,-0.497 0.461,-0.654 0.504,1.65 0.053,-1.306 0.729,-0.886 1.035,2.295 -1.117,2.647 0.729,3.545 -1.144,0.503 -0.963,-0.128 -1.822,0.445 0.24,-0.765 0.053,-1.009 -0.194,-1.178 -0.065,0.607 -0.158,1.184 -0.284,1.722 0.709,-0.182 1.664,-0.646 1.999,0.487 -1.432,-0.711 -0.128,1.913 -1.093,1.771 -0.257,-0.62 -1.02,-0.626 -1.143,-1.41 -0.15,0.46 -0.329,0.889 -0.542,1.284 0.731,0.165 1.389,0.713 1.855,1.798 0,-0.247 0.295,-0.503 0.363,0 -0.739,0.89 -0.969,0.114 -1.455,-0.443 0.141,2.978 -2.091,3.07 -2.55,5.318 0.283,0.099 0.72,0.011 0.729,0.444 C 8.386,49.288 10.041,44.725 8.578,46.453 8.574,45.758 8.685,45.2 8.815,44.727 8.725,44.671 8.635,44.6 8.545,44.492 8.95,44.488 8.912,43.945 9.124,43.708 c 0.025,-0.092 0.045,-0.181 0.062,-0.267 -0.84,0.47 -1.875,0.773 -3.115,0.912 -0.026,0.045 -0.646,0.141 -0.969,0.07 -0.2,0.008 -0.392,0.022 -0.603,0.022 -1.358,0 -2.93,-0.143 -4.502,-0.715 v 6.146 c 1.5,0.571 3.501,0.857 5.788,0.857 10.79,0 14.005,-6.717 14.005,-13.72 V 19.002 c -0.291,0.618 -0.665,1.136 -1.457,1.145 -1.012,-1.288 1.197,-1.151 0.73,-3.104 0.314,0.195 0.543,0.225 0.727,0.213 v -0.538 c -0.3,-0.134 -0.696,-0.256 -1.243,-0.001 z m 0.155,-6.323 c 0.316,1.562 -0.889,2.34 -1.094,0.886 0.719,0.132 0.725,-0.597 1.094,-0.886 z M 14.633,4.612 c 1.732,-0.538 1.406,1.7 2.186,0 0.15,1.066 -0.666,0.964 -0.364,2.217 C 17,6.125 17.943,6.503 18.275,7.272 15.532,6.677 17.598,9.182 15.724,9.488 16.535,7.791 15.208,7.546 14.632,6.384 16.105,5.91 15.491,5.379 14.633,4.612 z m 2.818,36.745 c -1.031,-0.463 -1.518,-0.463 -2.548,0 0.111,-1.021 -1.052,-0.491 -1.093,-1.33 0.93,0.339 1.674,0.654 2.186,-0.442 -0.98,0.305 -0.704,-0.916 -1.093,-1.328 1.006,0.055 1.249,0.846 0.728,-0.443 0.68,0.059 1.219,0.289 1.456,0.884 -2.094,0.69 0.954,2.61 0.364,2.659 z M 19.109,37.4 c 0.1,1.01 -0.089,1.667 -0.729,1.772 0.083,-0.783 -0.367,-2.219 0.729,-1.772 z m -0.365,3.99 c 0.107,-1.165 -1.412,-0.35 -1.092,-1.771 1.291,-0.331 2.449,1.432 1.092,1.771 z M 18.336,21.476 c 0,0.294 0,0.589 0,0.886 -0.363,-0.002 -0.433,0.357 -0.729,0.442 -0.005,-0.731 -1.008,-0.248 -1.091,-0.886 0.521,-0.104 0.614,-0.73 1.091,-0.887 0.082,0.344 0.012,0.874 0.365,0.887 0.023,-0.271 0.056,-0.524 0.364,-0.442 z"
   style="fill:#4a5d75" />
	</g>
</g><g
     id="g9">
	<path
   id="path11"
   d="m 91.935,30.751 c 0.05,0.331 -0.052,0.604 -0.197,0.736 0,0.056 0.006,0.111 0.006,0.168 0,0.375 -0.015,0.752 -0.038,1.129 0.359,0.015 0.755,-0.374 1.127,-0.829 -0.047,0.042 -0.103,0.085 -0.17,0.127 -0.177,-0.525 -0.388,-1.007 -0.728,-1.331 z"
   style="fill:#4a5d75" />
</g><g
     id="g13">
	<g
   id="g15">
		<path
   id="path17"
   d="m 93.086,39.163 c 0.01,-0.005 0.017,-0.011 0.026,-0.017 -0.331,-0.361 -0.543,-0.867 -0.812,-1.304 0.567,0.018 0.912,0.305 1.182,0.683 -0.057,-0.554 -0.653,-1.217 -0.031,-1.58 -1.349,-0.053 -0.917,-0.645 -0.73,-1.771 -0.292,-0.007 -0.595,-0.211 -0.864,-0.492 -0.067,0.149 -0.154,0.313 -0.285,0.504 -0.055,-0.092 -0.096,-0.178 -0.132,-0.262 -0.214,1.169 -0.548,2.312 -1.002,3.394 l 0,0 0,0 c -1.653,3.93 -4.917,6.986 -10.054,6.986 -7.932,0 -11.433,-7.146 -11.433,-13.648 0,-1.46 0.198,-2.905 0.56,-4.285 -0.237,0.234 -0.464,0.263 -0.516,-0.164 0.223,-0.026 0.432,-0.066 0.365,-0.443 -0.501,-0.02 -0.799,0.21 -1.092,0.443 -0.585,-1.745 1.572,-0.155 1.457,-1.33 -0.223,-0.025 -0.432,-0.066 -0.365,-0.444 0.388,-0.058 0.597,0.054 0.695,0.245 0.029,-0.075 0.052,-0.153 0.082,-0.229 -0.07,-0.901 0.119,-1.991 -0.723,-0.996 -0.014,-2.505 1.454,-3.272 0,-4.434 0.872,-0.679 1.848,-1.07 2.731,-0.934 -0.162,-0.301 -0.482,-0.409 -0.642,-0.714 0.681,0.023 0.771,-0.341 0.363,-0.886 0.927,0.053 1.412,0.646 1.457,1.772 -0.18,-0.007 -0.328,0.025 -0.465,0.071 0.36,0.201 0.69,0.524 0.975,0.984 1.761,-1.431 3.958,-2.307 6.549,-2.307 2.368,0 4.406,0.749 6.084,1.987 0.03,-0.222 0.117,-0.374 0.371,-0.322 0.29,0.271 0.397,0.607 0.395,0.936 1.569,1.397 2.752,3.264 3.514,5.358 0.514,-0.513 1.207,-0.748 1.555,-0.09 -0.481,0.005 -0.334,0.775 -0.729,0.887 -0.051,-0.528 -0.297,-0.396 -0.591,-0.142 0.082,0.26 0.147,0.525 0.216,0.79 0.354,0.311 0.564,0.89 0.284,1.307 0.083,0.478 0.15,0.959 0.192,1.445 0.045,-0.152 0.117,-0.271 0.263,-0.299 -0.015,0.699 1.369,1.306 1.039,1.916 0.319,-0.406 0.613,-0.829 0.841,-1.038 1.544,0.458 3.164,0.53 4.004,-0.443 0.36,0.166 0.705,0.399 1.039,0.608 -0.008,-0.27 -0.017,-0.539 -0.034,-0.805 -0.686,-0.395 -1.245,-0.942 -1.732,-1.578 0.966,-0.731 -0.264,-0.924 0.527,-3.061 -0.209,0 -0.418,0 -0.628,0 0.028,-0.771 -0.081,-1.379 -0.364,-1.771 0.311,-0.037 0.557,-0.062 0.762,-0.076 -0.569,-1.416 -1.295,-2.722 -2.161,-3.907 -0.019,-0.004 -0.037,-0.003 -0.057,-0.009 -0.033,-0.074 -0.058,-0.133 -0.085,-0.195 -0.355,-0.473 -0.733,-0.924 -1.133,-1.354 -0.245,-0.107 -0.438,-0.277 -0.547,-0.55 -1.961,-1.923 -13.022,-5.024 -13.022,-5.024 -2.268,0 -3.323,0.21 -4.846,0.569 0.217,0.446 0.556,0.727 -0.03,0.793 -0.351,-1.219 -0.948,0.569 -1.43,-0.393 -0.227,0.073 -0.449,0.153 -0.67,0.234 0.203,0.216 0.316,0.555 0.28,1.046 -0.258,-0.37 -0.678,-0.545 -1.074,-0.75 -0.146,0.062 -0.282,0.135 -0.425,0.199 0.284,0.469 0.583,0.916 0.042,0.994 -0.096,-0.358 -0.273,-0.614 -0.543,-0.759 -0.164,0.08 -0.336,0.148 -0.497,0.232 0.121,0.824 0.301,2.199 -0.053,2.742 -0.102,-0.666 -1.567,-1.867 -0.729,-2.216 -0.004,-0.021 0,-0.04 -0.002,-0.061 -5.211,3.126 -8.388,8.812 -8.576,15.797 0.507,0.285 0.971,0.621 0.975,1.52 -0.321,0 -0.642,0 -0.963,0 0.411,10.036 7.844,18.209 18.539,18.209 6.62,0 11.994,-3.182 15.215,-7.999 0.038,-0.229 0.156,-0.521 0.401,-0.914 -1.198,-0.608 -2.102,-1.571 -2.913,-2.655 z m 4.27,-10.153 c -0.03,0.623 1.058,0.505 0.363,0.887 -0.844,0.387 -0.836,-2.256 -0.363,-0.887 z m -1.094,0 c -0.394,-2.352 1.107,-0.524 0,0 l 0,0 z m -1.413,1.741 c -1.209,-0.645 1.42,-1.104 0,0 l 0,0 z M 94.078,26.35 c -0.373,-0.052 -0.737,1.913 -1.091,0.443 0.523,0.236 0.888,-1.727 1.091,-0.443 z m -0.686,-7.122 c 0,-0.444 -0.296,-0.527 -0.365,-0.888 0.587,-1.209 1.223,0.65 0.365,0.888 z m 0,4.432 c -0.625,0.025 -0.935,-0.343 -1.092,-0.888 0.627,-0.021 0.932,0.341 1.092,0.888 z m -1.498,-2.629 c -0.395,-2.352 1.106,-0.524 0,0 l 0,0 z m -0.687,-0.918 c -1.42,-1.101 1.207,-0.644 0,0 l 0,0 z m -1.82,-2.217 c -0.32,1.424 0.944,0.919 1.091,1.775 -1.543,0.635 -2.514,-1.358 -1.091,-1.775 z m -6.962,-3.843 c 1.107,1.493 -1.345,1.345 0,0 l 0,0 z m -5.462,1.658 c 0.934,0.739 -0.06,-2.294 1.092,-2.216 -0.379,1.256 0.602,3.04 0,3.104 -0.02,-0.271 -0.055,-0.526 -0.363,-0.444 -0.483,-0.064 -1.355,1.491 -1.457,0.444 0.482,-0.005 0.334,-0.778 0.728,-0.888 z M 74.415,16.6 c 0.994,-0.043 0.733,0.739 1.456,0 -0.239,1.005 -1.337,1.923 -1.821,1.329 -0.08,0.343 -0.01,0.876 -0.362,0.886 -0.059,-1.103 0.57,-1.372 0.727,-2.215 z M 62.762,34.33 c -0.02,-0.764 0.281,-1.138 0.729,-1.33 0.019,0.762 -0.28,1.137 -0.729,1.33 z m 2.549,5.761 c 2.114,-0.467 0.152,1.921 0,0 l 0,0 z m 8.054,6.618 c -0.201,0.789 -0.188,1.842 -0.729,2.216 -1.302,-0.912 1.717,-3.152 0.729,-2.216 z m 0,-1.771 c -0.021,-0.272 -0.054,-0.527 -0.364,-0.445 0,-0.296 0,-0.59 0,-0.885 0.895,-0.691 1.069,1.503 0.364,1.33 z m 3.642,3.987 c -0.342,-1.339 -1.644,-0.827 -0.365,0 -1.049,1.287 -1.139,-0.864 -2.549,-0.442 0.062,-0.663 -0.131,-1.637 0.364,-1.773 -0.319,0.91 0.944,1.991 1.093,0.885 -1.689,-0.241 2.523,-1.88 -0.729,-1.328 -0.443,-0.982 -0.885,-2.816 0,-2.217 0.002,0.444 -0.297,0.527 -0.364,0.889 1.016,1.085 2.451,-0.341 2.55,0 -0.443,1.412 -0.048,1.315 -0.73,2.656 0.466,-0.023 0.505,-0.565 1.092,-0.441 -0.463,1.108 0.187,1.387 -0.362,1.771 z m 14.928,-8.864 c -0.02,-0.763 0.281,-1.136 0.729,-1.33 0.017,0.761 -0.282,1.133 -0.729,1.33 z"
   style="fill:#4a5d75" />
	</g>
</g><g
     id="g19">
	<g
   id="g21">
		<path
   id="path23"
   d="m 115.661,28.809 c 0.017,0.228 0.284,0.54 -0.1,0.646 -0.254,-0.854 -1.107,-0.98 -1.669,-1.461 -2.778,-1.326 -5.002,-2.767 -5.002,-5.556 0,-0.213 0.019,-0.416 0.048,-0.612 -0.217,-0.354 -0.563,-0.55 -0.881,-0.78 -0.121,2.659 1.437,3.275 1.455,5.764 -0.672,-3.013 -2.584,-2.57 -3.277,-4.876 2.018,0.521 1.979,-1.728 1.457,-3.103 1.163,-0.208 1.039,-1.987 1.82,-2.661 -0.318,2.068 0.945,-0.608 1.092,0.888 -0.289,0.049 -1.102,1.464 -0.361,1.33 0.422,-1.109 1.269,-1.707 1.09,-3.547 0.485,0 0.973,0 1.457,0 0.4,1.417 -2.148,1.466 -0.729,2.659 0.223,-0.025 0.432,-0.065 0.364,-0.442 -0.833,0.253 1.586,-1.795 1.821,0 -0.708,0.358 -1.076,0.758 -1.306,1.206 0.744,-0.17 1.549,-0.256 2.38,-0.256 1.572,0 5.574,0.93 7.074,1.858 l 0.572,-5.859 c -2.644,-0.786 -5.216,-1.43 -8.36,-1.43 -7.217,0 -12.862,3.645 -12.862,11.219 0,0.235 0.017,0.459 0.033,0.684 0.143,-0.008 0.281,0.007 0.413,0.057 -0.066,1.378 0.859,2.507 1.455,1.773 0.148,0.547 0.224,1.185 0.339,1.772 0.488,-0.132 1.752,-1.261 1.788,-0.431 -0.505,-0.009 -1.354,1.411 -1.74,0.656 0.168,0.745 0.435,1.371 1.071,1.548 0.657,-0.558 2.629,-1.795 2.549,0.444 -1.083,-0.229 -1.799,-0.046 -2.392,0.345 0.519,0.411 1.073,0.791 1.651,1.147 0.098,-0.026 0.18,0.012 0.231,0.14 0.189,0.113 0.379,0.225 0.572,0.334 0.068,-0.049 0.135,-0.101 0.2,-0.152 0.04,0.119 0.065,0.22 0.081,0.31 1.999,1.103 4.143,2.003 5.893,3.009 -0.04,-0.076 -0.083,-0.147 -0.105,-0.245 0.408,-0.096 0.567,-0.491 0.729,-0.889 0.624,-0.175 0.933,0.659 1.091,0 -0.221,-0.023 -0.43,-0.065 -0.361,-0.442 0.805,-0.326 1.498,1.634 0.727,1.771 -0.086,-0.902 -1.031,-0.216 -1.353,0.248 1.727,1.109 2.921,2.389 2.921,4.213 0,3.931 -3.788,5.217 -6.86,5.217 -0.861,0 -2.098,-0.181 -3.432,-0.521 -0.277,0.245 -0.604,0.253 -0.712,-0.194 -0.252,-0.074 -0.505,-0.153 -0.759,-0.239 -0.09,0.595 -0.758,1.145 -1.471,1.381 0.003,0.03 0.016,0.064 0.014,0.094 -0.019,-0.028 -0.043,-0.051 -0.064,-0.077 -0.904,0.28 -1.853,0.048 -1.757,-1.254 0.426,0.611 1.304,0.675 1.757,1.254 0.017,-0.005 0.033,-0.012 0.05,-0.017 -0.065,-0.602 -1.169,-1.562 -0.352,-1.681 0.15,0.56 0.471,0.906 1.093,0.889 -0.031,-0.219 -0.082,-0.546 -0.126,-0.907 -0.915,-0.359 -1.811,-0.786 -2.602,-1.299 l -0.184,3.091 0,10e-4 c 0.019,0.195 10e-4,0.347 -0.029,0.481 l -0.145,2.429 c 3.072,1.644 6.574,2.001 10.004,2.001 6.502,0 12.719,-3.573 12.719,-11.361 0.001,-6.382 -4.735,-8.623 -9.02,-10.567 z m 2.814,9.508 c -0.005,-0.585 -0.639,-0.404 -0.729,-0.886 0.422,-1.079 1.716,0.496 0.729,0.886 z m -0.686,-3.131 c 0.035,-0.375 -0.008,-0.846 0.035,-1.212 -0.728,0.086 -0.108,-1.467 -1.17,-0.974 0.859,-1.301 -0.698,-1.647 0,-2.216 0.414,0.948 0.952,1.745 1.324,2.747 0.046,-0.055 0.102,-0.101 0.176,-0.121 0.004,0.588 0.637,0.407 0.727,0.887 -0.518,0.106 -0.614,0.731 -1.092,0.889 z m 2.143,7.122 c -0.034,-1.208 0.606,-0.893 0,-1.774 0.696,0.188 1.566,0.161 1.455,1.33 -0.634,-0.034 -1.132,0.099 -1.455,0.444 z m 2.591,-3.578 c -1.207,-0.646 1.42,-1.103 0,0 l 0,0 z"
   style="fill:#4a5d75" />
	</g>
</g><g
     id="g25">
	<g
   id="g27">
		<path
   id="path29"
   d="m 143.676,30.31 c -0.025,0.011 -0.046,0.026 -0.076,0.031 0.002,-0.022 0.003,-0.047 0.005,-0.07 -2.253,-1.226 -4.719,-2.115 -6.613,-3.244 -0.183,0.121 -0.37,0.236 -0.675,0.21 -0.045,-0.249 -0.024,-0.448 0.021,-0.626 -1.504,-1.032 -2.512,-2.297 -2.512,-4.173 0,-3.001 3.001,-4.431 6.431,-4.431 1.572,0 5.574,0.93 7.074,1.858 l 0.572,-5.859 c -2.644,-0.786 -5.216,-1.43 -8.36,-1.43 -4.468,0 -8.33,1.4 -10.626,4.262 -0.03,0.064 -0.068,0.118 -0.122,0.153 -1.338,1.741 -2.115,4.002 -2.115,6.804 0,0.285 0.017,0.56 0.041,0.828 0.876,0.22 2.019,1.562 1.222,2.17 -0.076,-0.534 -0.4,-0.274 -0.723,-0.003 0.81,2.113 2.458,3.627 4.391,4.854 0.007,-10e-4 0.009,-0.005 0.016,-0.005 10e-4,0.007 0.003,0.011 0.004,0.018 0.126,0.08 0.255,0.157 0.384,0.234 0.106,-0.059 0.223,-0.154 0.339,-0.252 -0.009,0.151 -0.029,0.289 -0.048,0.428 1.961,1.148 4.123,2.062 5.95,3.048 2.272,-2.299 2.364,-2.412 4.285,-4.791 0.092,1.296 -0.686,1.53 -1.091,2.218 0.366,-0.003 0.432,0.358 0.726,0.443 0.043,-0.541 0.109,-1.049 0.73,-0.886 -0.492,1.392 -0.113,1.521 1.094,1.771 0.028,2.231 -0.732,3.434 -1.671,5.193 0.089,0.323 0.144,0.66 0.144,1.023 0,1.358 -0.459,2.395 -1.178,3.178 0.537,0.563 1.062,1.141 2.34,0.803 0.481,0.77 0.373,3.374 -0.363,2.216 0.945,-1.373 -1.549,1.523 -1.459,0.442 0.646,-0.544 1.057,-1.375 1.822,-1.773 -1.135,-0.633 -2.6,1.517 -1.822,0.445 0,-0.446 0.295,-0.53 0.363,-0.889 -0.642,-0.713 -1.102,-0.584 -1.615,-0.59 -0.536,0.389 -1.149,0.684 -1.801,0.899 0.197,0.254 0.428,0.473 0.505,0.579 -0.283,0.097 -0.721,0.01 -0.73,0.442 1.303,-0.507 2.149,-2.297 2.552,0.443 -2.44,-0.476 0.1,2.225 -0.729,2.216 -0.086,-0.832 -0.602,0.251 -0.729,-0.445 1.001,-0.222 -2.519,-0.51 -1.093,-0.441 0.445,-0.052 0.863,-0.132 0.73,-0.887 -0.361,0 -0.723,0 -1.083,0 0.022,1.188 -0.605,0.879 0.001,1.757 -1.383,0.325 -0.436,-1.597 -0.012,-1.765 0.049,-0.677 -0.016,-1.214 -0.13,-1.693 -0.807,0.192 -1.642,0.279 -2.43,0.279 -1.93,0 -5.717,-0.857 -8.361,-2.572 l -0.357,6.002 c 3.072,1.644 6.574,2.001 10.004,2.001 6.502,0 12.719,-3.573 12.719,-11.361 0,-4.851 -2.742,-7.308 -5.941,-9.062 z m -6.994,-15.04 c 0.896,-0.689 1.071,1.506 0.363,1.33 -0.019,-0.568 -0.466,-0.615 -0.363,-1.33 z m -5.463,3.544 c -0.545,-0.075 -1.344,0.16 -1.456,-0.443 0.626,-0.307 1.567,-2.479 1.821,-1.771 -0.206,0.92 -1.041,1.43 -0.365,2.214 z m 0.771,8.392 c 0.629,-0.022 0.935,0.34 1.093,0.888 -0.625,0.021 -0.933,-0.343 -1.093,-0.888 z m 4.692,2.248 c -0.148,-0.757 -0.469,0.091 -1.093,0 0,-0.74 0,-1.478 0,-2.218 0.679,0.062 1.217,0.293 1.456,0.888 -1.29,0.049 0.776,1.466 -0.363,1.33 z m 0.405,3.956 c 0.039,-0.496 -0.529,-0.69 0,-0.885 0.368,0.004 0.459,0.778 0,0.885 z m -9.467,13.742 c 0.082,-0.787 -0.366,-2.221 0.729,-1.772 0.102,1.01 -0.088,1.667 -0.729,1.772 z m 15.617,-5.73 c 0.223,-0.131 1.402,-1.104 1.457,0 -0.68,-0.424 -1.218,1.327 -1.457,0 z"
   style="fill:#4a5d75" />
	</g>
</g><g
     id="g31">
	<path
   id="path33"
   d="m 141.449,33.429 c -0.487,0 -0.972,0 -1.458,0 0.276,1.053 -0.44,1.889 -1.074,2.058 0.528,0.308 1.015,0.626 1.453,0.963 0.037,-0.365 0.286,-0.473 0.35,-0.804 -1.824,-0.256 0.572,-1.581 0.729,-2.217 z"
   style="fill:#4a5d75" />
</g><g
     id="g35">
	<path
   id="path37"
   d="m 140.773,36.781 c 0.253,0.22 0.487,0.447 0.691,0.688 0.65,-0.995 1.351,-2.059 1.807,-3.599 -1.107,0.637 -1.876,1.685 -2.498,2.911 z"
   style="fill:#4a5d75" />
</g><g
     id="g39">
	<g
   id="g41">
		<path
   id="path43"
   d="m 56.983,84.851 c -3.757,0.013 -6.854,-1.138 -9.177,-3.105 -0.04,0.092 -0.109,0.193 -0.243,0.32 -1.495,-1.391 0.309,1.447 -0.349,1.288 -0.078,-0.335 -0.297,-0.498 -0.706,-0.426 0.027,0.604 -0.075,1.643 -0.352,0.861 -0.115,-0.997 0.051,-1.65 0.348,-2.151 -1.333,-0.117 -0.028,-0.454 0.793,-0.361 -2.038,-1.935 -3.4,-4.547 -3.989,-7.587 -0.806,-0.948 -1.298,-3.101 -2.27,-2.165 0.573,-0.129 0.955,0.577 0.355,0.857 -0.147,-0.73 -0.454,0.092 -1.059,0.004 -0.24,-2.482 1.516,-2.271 0.337,-4.728 -1.229,0.132 0.034,1.163 -0.701,1.292 -0.077,-0.521 -0.395,-0.262 -0.707,0.003 -0.442,-1.39 1.142,-0.333 0.701,-1.721 -0.986,1.595 -0.627,-3.184 -0.361,-2.147 0.08,0.333 0.012,0.847 0.357,0.858 1.216,-0.319 0.229,-1.294 -0.007,-2.149 0.692,0.128 0.697,-0.583 1.056,-0.862 -0.421,2.304 1.687,1.513 2.7,2.062 0.045,-0.15 0.085,-0.304 0.134,-0.452 -0.187,-0.547 -0.82,-0.971 -0.01,-1.19 0.135,0.117 0.235,0.242 0.316,0.37 1.999,-5.047 6.438,-8.438 12.558,-8.459 2.947,-0.01 5.778,0.392 8.908,2.151 l 0.565,-6.958 c -2.016,-0.783 -4.291,-1.269 -6.391,-1.503 -0.238,0.59 -0.696,0.914 -1.227,1.15 -0.022,-0.698 -0.146,-1.086 -0.329,-1.284 -0.366,-0.02 -0.721,-0.033 -1.064,-0.035 -0.421,0.147 -0.836,0.319 -1.082,0.041 0.008,-0.008 0.015,-0.01 0.022,-0.019 -13.517,0.33 -21.796,8.202 -21.75,22.031 0.01,3.172 0.522,5.947 1.432,8.369 1.038,-0.351 0.126,-1.285 -0.103,-2.111 0.693,0.127 0.697,-0.583 1.056,-0.863 -0.44,2.406 1.881,1.436 2.831,2.142 0.336,-0.803 -1.062,-1.435 -0.006,-1.72 1.266,1.104 0.009,2.756 -0.692,3.87 0.466,0.001 0.324,0.75 0.708,0.855 0.107,-1.058 2.374,1.041 1.065,1.716 -0.864,-0.724 -0.639,1.893 -0.894,2.319 4.018,3.99 10.03,5.942 17.246,5.918 3.124,-0.01 6.364,-0.608 9.368,-1.327 l -0.376,-6.894 c -1.94,1.008 -5.769,1.729 -9.011,1.74 z m 3.348,-33.892 c 0.75,1.176 0.609,-1.157 1.765,-0.006 -0.018,-0.653 0.668,1.03 1.065,2.145 -0.716,0.131 -0.937,0.864 -1.407,1.294 0.771,-1.615 -0.72,-0.935 -0.007,-2.146 -0.352,10e-4 -0.706,0.002 -1.058,0.004 0.021,0.549 0.455,0.59 0.356,1.285 -1.084,0.429 -1.078,-3.977 -0.714,-2.576 z M 59.624,50.1 c -0.032,0.677 0.052,1.491 -0.703,1.294 -0.022,-0.739 0.267,-1.104 0.703,-1.294 z m -3.174,1.733 c -0.001,-0.242 0.286,-0.49 0.354,-10e-4 -0.528,0.686 -1.487,-0.008 -1.767,-0.855 1.108,-0.496 0.858,0.671 1.413,0.856 z m -2.92,0.438 c 0.723,-0.495 1.687,0.668 0.71,0.857 -0.022,-0.261 -0.056,-0.509 -0.355,-0.43 0.855,0.996 -0.275,1.482 -0.699,2.15 -0.585,-0.664 0.116,-1.673 0.344,-2.577 z m -5.383,4.191 c 0.021,0.738 -0.267,1.103 -0.7,1.291 -0.021,-0.738 0.267,-1.103 0.7,-1.291 z m -6.16,-1.038 c -1.173,-0.62 1.372,-1.073 0,0 l 0,0 z m -0.339,4.299 c -1.077,-1.445 1.301,-1.307 0,0 l 0,0 z m -3.436,11.381 c -1.496,-1.392 0.308,1.45 -0.349,1.289 -0.079,-0.335 -0.298,-0.498 -0.706,-0.427 0.028,0.604 -0.075,1.645 -0.352,0.861 -0.116,-0.998 0.051,-1.649 0.348,-2.149 -2.141,-0.19 2.518,-0.945 1.059,0.426 z m 0.334,-6.015 c -0.527,0.073 -1.303,-0.149 -1.41,0.435 0.179,1.211 1.324,0.992 0.708,1.283 0.163,0.172 -2.727,-0.468 -1.766,-0.422 1.218,-0.724 0.796,-1.522 2.109,-2.585 0.022,0.264 0.054,0.508 0.355,0.428 0.002,0.285 0.003,0.573 0.004,0.861 z m 1.089,9.449 c 1.153,-0.36 -1.748,-1.502 -0.359,-2.148 10e-4,0.286 0.002,0.573 0.003,0.859 0.477,-0.138 0.672,-0.614 1.41,-0.434 -0.098,0.642 -0.445,3.105 -1.054,1.723 z m 7.942,11.823 c 0.001,0.429 0.288,0.51 0.355,0.856 -0.564,1.177 -1.186,-0.622 -0.355,-0.856 z m 0.36,2.148 c -0.682,-0.785 0.296,-1.458 0.7,-2.15 0.055,1.067 -0.178,1.783 -0.7,2.15 z m 1.049,-3.012 c 1.153,-0.357 -1.748,-1.5 -0.36,-2.148 0.001,0.287 0.002,0.573 0.003,0.861 0.477,-0.138 0.673,-0.613 1.411,-0.434 -0.1,0.641 -0.445,3.104 -1.054,1.721 z m 4.863,5.142 c -1.02,0.081 -1.949,-1.444 -0.712,-1.715 -0.431,1.391 1.144,0.323 0.712,1.715 z m 8.708,-0.153 c -0.398,-0.615 -0.386,-1.044 0.347,-1.287 -0.014,0.59 0.169,0.941 0.357,1.285 -0.235,0.001 -0.471,0.002 -0.704,0.002 z m 1.561,-3.996 c 0.217,-0.026 0.42,-0.064 0.353,-0.433 -0.931,0.134 -0.913,-0.892 -1.066,-1.712 0.526,-0.685 1.443,-0.322 1.766,0.424 -1.175,-0.105 0.103,2.831 -1.053,1.721 z m 1.112,1.53 c -1.378,-1.062 1.17,-0.63 0,0 l 0,0 z"
   style="fill:#243446" />
	</g>
	<g
   id="g45">
		<path
   id="path47"
   d="m 80.827,59.485 c -4.845,0.017 -9.069,1.818 -11.933,5.044 0.624,1.113 2.117,1.158 1.918,3.281 -1.054,0.053 -1.182,0.344 -1.05,2.579 -2.225,-0.318 0.085,-3.071 -0.016,-4.728 -0.346,0.731 -1.083,0.135 -1.332,-0.574 -2.143,2.684 -3.404,6.248 -3.389,10.541 0.029,8.724 5.887,15.658 15.907,15.625 C 91.012,91.22 96.824,84.246 96.794,75.523 96.762,65.502 89.845,59.455 80.827,59.485 z m -10.071,9.362 c 0.006,0.565 0.619,0.392 0.708,0.856 -0.465,0.006 -0.319,0.756 -0.702,0.861 0.336,-0.801 -1.062,-1.431 -0.006,-1.717 z m -2.751,4.127 c -0.232,10e-4 -0.47,10e-4 -0.705,0.002 -1.159,-0.232 0.401,-2.82 0.7,-1.291 -0.548,0.113 -0.24,0.943 0.005,1.289 z m 3.553,6.863 c 0.466,-0.008 0.32,-0.754 0.702,-0.862 0.087,0.612 0.585,0.724 0.712,1.288 -0.887,-0.546 -1.107,0.22 -1.414,-0.426 z m 2.844,5.575 c -0.248,-1.153 0.727,-0.832 1.054,-1.291 0.065,0.937 -0.286,1.365 -1.054,1.291 z m 3.549,4.579 c 0.513,-1.676 -0.087,-1.37 -0.708,-0.427 -0.919,-1.126 0.569,-0.34 0.349,-1.72 -0.721,0.129 -0.691,1.164 -1.409,1.293 0.057,-1.357 0.24,-2.563 1.404,-2.582 0.489,0.264 0.056,1.654 0.709,1.718 0.433,-0.621 1.344,-0.656 1.762,-1.297 -0.596,1.606 0.21,0.679 0.36,2.147 -1.394,-1.003 -1.076,0.813 -2.467,0.868 z m 11.745,-5.799 c 0.336,-0.801 -1.062,-1.433 -0.005,-1.719 0.005,0.566 0.618,0.393 0.707,0.857 -0.465,0.007 -0.319,0.757 -0.702,0.862 z m 1.401,-9.503 c -1.043,0.87 -1.208,1.526 -1.402,2.585 -0.466,-0.031 -0.883,-0.189 -1.272,-0.374 -0.448,4.287 -2.354,8.206 -7.511,8.224 -1.601,0.005 -2.881,-0.387 -3.911,-1.048 0.062,0.167 0.139,0.32 0.22,0.467 -0.354,0.002 -0.707,0.003 -1.058,0.004 -10e-4,-0.285 -0.002,-0.572 -0.003,-0.857 0.092,0 0.163,-0.024 0.225,-0.061 -1.756,-1.47 -2.616,-3.849 -2.943,-6.379 -1.15,-0.286 -1.091,1.583 -2.788,1.65 0.742,-2.422 -0.125,-1.979 -1.021,-0.617 -1.329,-1.628 0.82,-0.489 0.503,-2.482 -1.042,0.186 -0.998,1.679 -2.035,1.868 0.083,-1.961 0.347,-3.705 2.029,-3.731 0.707,0.38 0.543,-1.432 1.486,-1.338 0.451,-0.65 1.211,0.334 1.689,1.162 0.13,-1.878 0.695,-3.69 1.7,-5.132 -0.376,-0.29 -1.045,-0.226 -0.875,-1.189 0.235,-0.001 0.47,-0.002 0.708,-0.003 0.018,-0.262 0.049,-0.508 0.349,-0.429 0.143,0.737 -0.521,1.102 0.004,1.287 0.02,0 0.039,0 0.059,0 0.134,-0.17 0.272,-0.34 0.42,-0.499 -0.287,-0.971 -0.056,-2.578 -0.139,-3.799 0.94,0.569 1.239,0.144 1.349,-0.892 -0.553,-0.082 -0.29,-0.634 0.052,-0.754 0.001,-0.026 0.003,-0.05 0.004,-0.076 1.891,-0.564 1.551,0.742 3.175,-0.439 0.045,1.096 0.654,1.499 1.067,2.143 -10e-4,-0.429 -0.002,-0.858 -0.004,-1.285 2.927,2.188 8.203,3.717 8.498,7.704 1.409,1.147 2.488,2.7 4.248,3.425 -0.003,-0.241 0.281,-0.491 0.353,-0.002 -0.419,0.207 -0.8,0.459 -1.056,0.861 1.326,0.336 1.024,2.372 1.069,3.004 -0.739,-2.215 -2.289,-0.865 -3.189,-2.998 z"
   style="fill:#243446" />
	</g>
	<g
   id="g49">
		<path
   id="path51"
   d="m 140.807,80.277 c -0.517,1.016 -0.741,0.801 -0.347,2.149 -1.13,0.834 -2.463,1.503 -3.172,0.869 1.316,-0.045 0.018,-1.676 0.698,-1.72 0.244,0.939 1.171,-0.818 1.408,-1.294 -0.006,-0.854 -0.963,-0.543 -0.709,-1.716 0.692,0.125 0.697,-0.583 1.053,-0.864 0.543,0.82 2.602,1.16 1.061,-0.004 0.667,0.096 0.775,-0.487 1.41,-0.433 0.238,0.233 0.399,0.562 0.51,0.93 l -0.023,-7.01 c -0.022,-6.777 -2.162,-11.898 -9.648,-11.874 -3.712,0.013 -7.655,1.734 -9.47,5.396 -1.723,-3.769 -4.734,-5.348 -8.979,-5.334 -2.946,0.01 -6.537,1.259 -9.002,4.98 h -0.116 l -0.014,-4.243 -7.368,0.024 0.042,12.519 c 0.448,-0.096 0.822,-0.125 1.28,0.216 -0.319,0.136 -0.8,0.449 -1.277,0.65 l 0.037,11.203 c 0.497,0.02 0.997,0.039 0.898,0.792 -0.312,-0.02 -0.612,-0.021 -0.896,-0.009 l 0.017,4.984 7.898,-0.026 -0.012,-3.514 c -0.499,0.313 -1.096,0.344 -1.354,-0.164 0.642,0.01 1.003,-0.319 1.352,-0.664 l -0.032,-9.667 c -1.657,0.008 -1.77,-1.883 -2.779,-2.665 -0.056,0.803 -0.157,1.557 -1.075,1.322 -0.249,-4.902 2.752,-3.988 3.903,-1.244 0.223,-3.79 1.333,-8.341 5.81,-8.356 2.597,-0.009 3.708,1.301 4.189,2.951 0.033,-0.039 0.082,-0.067 0.157,-0.07 0.243,0.938 1.172,-0.82 1.408,-1.296 -0.007,-0.854 -0.963,-0.542 -0.711,-1.716 0.695,0.126 0.698,-0.582 1.055,-0.862 0.542,0.817 2.603,1.159 1.06,-0.004 0.668,0.096 0.776,-0.489 1.41,-0.435 1.007,0.987 0.733,3.621 0.367,4.297 -0.531,-0.5 -0.866,-1.24 -1.769,-1.285 -0.517,1.016 -0.742,0.801 -0.346,2.15 -0.766,0.566 -1.623,1.045 -2.316,1.104 0.049,0.682 0.055,1.363 0.057,1.987 l 0.06,18.096 7.897,-0.026 -0.035,-10.623 c -0.286,-0.299 -0.613,-0.55 -1.123,-0.574 -0.517,1.017 -0.742,0.801 -0.346,2.149 -1.13,0.837 -2.463,1.504 -3.173,0.87 1.315,-0.046 0.018,-1.677 0.698,-1.719 0.244,0.938 1.173,-0.82 1.409,-1.297 -0.007,-0.853 -0.963,-0.541 -0.71,-1.714 0.694,0.125 0.697,-0.582 1.054,-0.863 0.543,0.817 2.603,1.158 1.061,-0.003 0.551,0.077 0.724,-0.3 1.119,-0.405 l -10e-4,-0.557 c 0,-0.128 0.003,-0.261 0.004,-0.393 -0.192,0.18 -0.419,0.312 -0.688,0.395 0.306,-2.416 -1.652,-3.353 0.692,-3.868 0.213,0.764 -1.029,1.789 0.007,2.147 0.01,-0.033 0.023,-0.063 0.033,-0.094 0.058,-1.01 0.177,-2.071 0.405,-3.089 -0.11,-0.126 -0.205,-0.373 -0.285,-0.803 2.316,-2.378 -3.536,-1.522 -2.653,-4.803 1.232,-0.046 1.398,0.61 0.663,1.603 2.104,-0.285 2.882,0.404 3.897,0.397 0.867,-1.031 2.079,-1.704 3.786,-1.71 4.538,-0.016 4.551,3.991 4.561,6.821 l 0.06,18.096 7.899,-0.026 -0.031,-9.217 c -0.046,0.179 -0.098,0.335 -0.153,0.436 -0.533,-0.495 -0.87,-1.236 -1.772,-1.28 z m -37.23,1.622 c 1.217,-0.724 0.796,-1.523 2.107,-2.585 0.022,0.261 0.054,0.506 0.354,0.426 0.001,0.286 0.002,0.574 0.003,0.86 -0.527,0.075 -1.301,-0.148 -1.408,0.436 0.179,1.213 1.324,0.994 0.708,1.285 0.165,0.17 -2.725,-0.469 -1.764,-0.422 z M 101.52,67.562 c 1.064,0.747 -0.496,2.657 -1.053,1.29 0.814,0.13 0.387,-1.242 1.053,-1.29 z m -1.76,6.419 c 0.819,0.145 1.654,0.272 1.417,1.714 -1.391,0.554 -0.921,-1.173 -1.417,-1.714 z m 2.495,11.523 c -1.344,0.57 0.558,2.58 -1.404,2.584 0.027,-1.605 0.391,-1.225 -0.009,-2.579 0.659,0.408 1.178,-1.29 1.413,-0.005 z M 102.24,71.57 c 0.876,-0.222 -0.512,2.374 -0.704,0.862 0.397,-0.092 0.55,-0.477 0.704,-0.862 -0.608,-0.168 -0.902,0.642 -1.06,0.004 0.215,-0.025 0.418,-0.066 0.352,-0.43 -0.052,-0.507 -0.631,-0.973 -0.004,-1.29 0.007,0.71 0.98,0.236 1.062,0.854 -0.273,0.097 -0.408,0.362 -0.35,0.862 z m 3.155,-0.361 c -0.726,0.379 -1.343,-1.413 -0.712,-1.287 0.035,0.679 0.902,0.333 0.712,1.287 z m 1.074,-1.517 c -2.136,0.353 -0.241,-1.967 0,0 l 0,0 z m 14.87,13.414 c 0.355,0.005 0.445,0.754 0.003,0.861 0.035,-0.481 -0.514,-0.663 -0.003,-0.861 z m 0.341,-7.392 c 0.466,-0.007 0.319,-0.753 0.701,-0.861 0.007,0.568 0.621,0.393 0.71,0.856 -0.216,0.127 -1.353,1.073 -1.411,0.005 z m 2.351,-4.34 c -0.469,0.559 -1.312,0.569 -1.413,-0.426 0.528,0.072 1.302,-0.16 1.413,0.426 z m -1.313,1.849 c -0.727,0.118 -0.077,1.902 -1.053,1.72 -0.201,-0.618 -0.555,-1.047 -1.063,-1.284 -0.361,1.266 -1.394,1.406 -1.762,0.864 1.772,-1.344 2.758,-0.8 3.878,-1.3 z m 10.564,-7.772 c 0.034,-0.482 -0.514,-0.665 -0.003,-0.857 0.356,0.004 0.446,0.75 0.003,0.857 z m -0.366,-3.866 c -0.001,-0.286 -0.002,-0.571 -0.003,-0.858 0.507,-0.481 0.86,-0.465 1.061,0.426 -0.488,-0.016 -0.775,0.204 -1.058,0.432 z m 6.941,27.73 c -1.381,-1.065 1.168,-0.629 0,0 l 0,0 z m 1.236,-0.3 c -0.816,0.287 -0.769,-1.676 -0.004,-1.288 0.284,0.145 0.43,1.138 0.004,1.288 z"
   style="fill:#243446" />
	</g>
	<g
   id="g53">
		<path
   id="path55"
   d="m 153.444,78.275 c -0.02,-0.262 -0.054,-0.51 -0.353,-0.429 -0.001,0.432 0.287,0.51 0.354,0.858 -0.659,-0.408 -1.175,1.292 -1.41,0.005 0.791,-0.812 -0.196,-0.923 -0.892,-1.35 -0.048,0.073 -0.094,0.141 -0.144,0.218 -0.035,-0.176 -0.091,-0.327 -0.166,-0.455 -0.022,-0.024 -0.042,-0.049 -0.062,-0.075 -0.563,-0.812 -1.916,-0.61 -2.762,0.047 -0.565,-1.047 -0.922,-2.248 -2.184,-2.794 l 0.054,16.031 7.599,-0.025 c -0.027,-0.11 -0.027,-0.249 0.003,-0.431 -0.528,-0.071 -1.3,0.158 -1.412,-0.424 0.963,0.308 0.706,-0.857 1.407,-0.865 0.056,0.299 0.173,0.521 0.296,0.737 l -0.038,-11.431 c -0.035,0.2 -0.112,0.352 -0.29,0.383 z m -3.862,6.028 c -0.185,-0.634 -0.526,-1.079 -0.711,-1.715 0.78,-0.321 1.458,1.579 0.711,1.715 z m 0.689,-5.158 c 0.527,0.072 1.301,-0.158 1.413,0.426 -0.469,0.559 -1.311,0.569 -1.413,-0.426 z m 1.075,4.723 c 0.306,-2.418 -1.651,-3.354 0.693,-3.868 0.212,0.764 -1.031,1.787 0.007,2.146 0.168,-0.507 0.371,-0.976 0.7,-1.292 0.082,1.67 -0.364,2.697 -1.4,3.014 z m 1.772,2.143 c -0.186,-0.637 -0.527,-1.081 -0.712,-1.718 0.86,-0.415 1.176,1.928 0.712,1.718 z"
   style="fill:#243446" />
	</g>
	<g
   id="g57">
		<path
   id="path59"
   d="m 185.859,60.3 c -0.125,0.207 -0.305,0.345 -0.522,0.439 -0.008,-0.274 0.039,-0.484 0.107,-0.665 -1.263,-0.6 -2.815,-0.928 -4.716,-0.921 -3.441,0.012 -7.058,1.515 -9.018,4.645 0.094,10e-4 0.196,0 0.311,-0.014 0.266,1.322 -0.965,0.827 -0.7,2.15 1.074,-0.272 0.682,-2.315 1.757,-2.584 -0.207,1.118 0.147,1.546 1.063,1.286 -0.163,2.327 -0.963,1.586 -1.751,3.439 -0.851,-0.758 -1.281,-1.785 -3.536,-1.702 -0.37,-1.729 0.542,-1.913 1.049,-2.583 -0.214,-0.023 -0.418,-0.064 -0.354,-0.429 0.481,-0.329 0.733,-0.331 0.936,-0.214 -0.62,-0.955 -1.364,-1.705 -2.213,-2.298 -0.01,0.104 -0.117,0.26 -0.41,0.489 -0.654,-0.348 -0.151,-0.641 0.184,-0.647 -1.562,-1.012 -3.48,-1.485 -5.767,-1.478 -0.31,10e-4 -0.628,0.018 -0.951,0.047 -0.215,0.625 0.05,1.229 -0.175,2.66 -0.843,0.262 -1.607,0.622 -2.822,0.438 -0.064,-1.768 1.577,-0.812 0.698,-2.577 0.657,-0.415 1.186,1.278 1.414,-0.005 -0.481,0.1 -0.603,-0.032 -0.594,-0.272 -1.168,0.275 -2.361,0.766 -3.49,1.532 -0.01,0.449 0.005,0.931 -0.331,0.988 0.025,-0.242 0.012,-0.533 0.036,-0.777 -1.01,0.737 -1.961,1.702 -2.786,2.945 l -0.118,0.001 -0.014,-4.243 -3.013,0.01 c 0.025,0.08 0.051,0.17 0.075,0.278 -0.806,-0.588 -1.323,1.11 -1.412,0.005 0.122,-0.077 0.238,-0.177 0.35,-0.28 l -3.367,0.012 0.014,4.11 c 1.443,0.842 2.286,-0.832 3.141,-2.164 1.17,1.661 -2.072,2.379 -2.219,4.237 -0.115,1.695 1.343,2.255 2.583,2.973 -0.839,2.945 -0.851,3.254 -1.881,5.312 -0.433,1.34 1.782,0.769 1.75,1.816 1.623,0.217 0.831,-2.913 2.892,-2.087 0.293,1.237 -0.066,1.886 -0.659,2.791 1.145,-0.027 1.428,0.518 2.332,0.047 l -0.005,-1.442 c -0.013,-3.95 0.614,-10.199 5.86,-10.217 3.096,-0.011 4.084,1.853 4.405,3.935 0.48,-0.282 0.88,-0.534 1.048,-0.709 0.006,-0.077 0.004,-0.144 0.018,-0.226 0.107,0.038 0.084,0.118 -0.018,0.226 -0.129,1.386 0.615,1.699 0.383,3.212 -0.497,0.016 -0.91,-0.075 -1.278,-0.215 0.002,0.203 0.003,0.403 0.003,0.599 l 0.06,18.096 7.899,-0.026 -0.049,-14.734 c -0.003,-0.936 0.031,-2.001 0.153,-3.078 -0.511,0.394 -1.184,0.931 -0.732,2.791 -0.664,-0.614 -3.595,-1.434 -4.049,0.013 -0.917,-0.146 -0.027,-1.427 0.734,-1.105 0.101,-0.594 -0.353,-0.632 -0.372,-1.104 -1.042,-0.298 -0.953,0.523 -1.838,0.376 0.638,-1.306 -0.25,-0.904 -0.377,-2.207 1.094,-0.625 2.051,-1.386 3.307,-1.852 -0.043,-0.916 -0.692,-1.136 -0.006,-1.841 0.695,0.038 0.26,1.216 1.108,1.102 -0.268,0.345 -0.666,0.559 -1.102,0.739 0.246,1.102 0.784,-0.354 1.472,-0.005 -0.847,1.192 0.14,1.927 -1.465,2.213 0.07,0.297 0.371,0.366 0.371,0.735 0.968,0.107 0.284,-1.431 1.469,-1.109 -0.286,0.328 -0.394,0.831 -0.364,1.474 0.931,0.039 1.483,-2.155 1.096,-2.212 0.443,-0.266 0.894,-0.523 1.311,-0.816 0.747,-2.39 2.233,-4.32 5.144,-4.329 4.538,-0.016 4.552,3.991 4.561,6.821 l 0.034,10.234 c 0.425,-1.202 0.972,-2.441 1.27,-3.627 2.359,-1.614 5.501,2.177 2.314,2.794 -0.07,-0.853 -0.181,-1.661 -1.155,-1.4 2.79,3.246 -0.897,4.834 -2.279,7.013 -0.053,-0.057 -0.09,-0.12 -0.135,-0.183 l 0.011,3.265 7.897,-0.026 -0.063,-19.156 C 190.359,66.165 189.241,62.17 185.859,60.3 z m -34.899,4.871 c -0.102,-0.901 -0.941,0.626 -1.414,-0.424 0.001,0.569 0.003,1.143 0.005,1.715 -0.882,-0.213 -1.452,-0.808 -2.122,-1.279 1.43,0.065 2.634,-1.417 3.881,-0.872 -0.662,0.102 0.203,0.703 -0.35,0.86 z m 4.556,-1.082 c -1.173,-0.622 1.372,-1.074 0,0 l 0,0 z m 3.443,0.599 c 0.104,-0.381 0.699,-2.188 1.057,-0.864 -0.726,-0.373 -0.697,2.188 -1.057,0.864 z m 12.511,20.833 c -0.667,0.047 -0.24,1.418 -1.056,1.289 -0.455,-1.18 1.023,-2.103 1.056,-1.289 z m -1.75,4.301 c -1.38,-1.065 1.168,-0.631 0,0 l 0,0 z m -7.508,-28.763 c 0.779,0.629 2.629,-0.062 2.827,1.279 -0.353,0.002 -0.704,0.003 -1.061,0.004 0.001,0.43 0.29,0.512 0.359,0.859 -0.94,-0.433 -2.012,-0.701 -2.125,-2.142 z m 3.548,5.143 c -1.546,0.32 0.28,-0.855 -0.711,-0.857 -0.018,0.265 -0.052,0.511 -0.351,0.432 0.323,-0.75 -0.02,-2.306 1.053,-2.149 -0.393,1.351 -0.03,0.969 0.009,2.574 z m 2.827,1.283 c 0.104,-1.347 -1.016,1.095 -1.062,-0.43 0.276,-0.096 0.698,-0.012 0.706,-0.431 -0.43,-0.048 -0.835,-0.127 -0.71,-0.858 0.608,0.029 1.93,1.308 1.066,1.719 z m 17.127,0.989 c 0.355,0.004 0.446,0.751 0.003,0.858 0.034,-0.481 -0.514,-0.669 -0.003,-0.858 z m 3.026,3.262 c -0.271,1.102 -0.344,2.437 -1.049,3.013 -0.084,-1.527 0.228,-2.573 1.049,-3.013 z m -0.9,-0.691 c -0.526,0.073 -1.301,-0.15 -1.409,0.435 0.179,1.21 1.325,0.993 0.709,1.285 0.162,0.17 -2.727,-0.47 -1.766,-0.422 1.217,-0.724 0.796,-1.526 2.109,-2.587 0.021,0.264 0.054,0.508 0.353,0.428 0.002,0.286 0.003,0.573 0.004,0.861 z"
   style="fill:#243446" />
	</g>
	<g
   id="g61">
		<path
   id="path63"
   d="m 220.661,63.755 c -1.593,-0.081 -2.775,-3.849 -1.421,-3.003 0.147,-0.428 -0.052,-0.748 -0.28,-1.019 l -5.4,0.018 0.006,1.814 c 0.255,-0.158 0.602,-0.096 0.664,0.661 -0.304,0.067 -0.513,0.069 -0.662,0.036 l 0.041,12.341 c 0.011,3.389 -0.912,8.521 -4.928,9.802 0.036,0.214 0.055,0.396 0.017,0.519 1.82,-0.636 2.243,2.091 -0.348,2.15 -1.178,-1.427 -3.042,-0.115 -3.176,0.011 0.001,-0.026 0.003,-0.051 0.005,-0.075 0.052,-0.481 -1.083,-0.234 -1.415,0.509 -0.055,-1.785 -0.231,-0.089 -0.706,0.002 -0.525,-2.083 -3.282,-5.079 -4.601,-3.424 -0.105,-0.872 -0.957,-0.837 -1.064,-1.715 0.606,-0.172 0.907,0.636 1.059,-0.003 -1.232,-0.934 -1.677,-2.834 -3.187,-3.427 0.242,-1.324 0.244,-0.827 -0.007,-2.148 1.049,-0.729 1.889,-1.709 3.168,-2.157 0.815,1.265 1.916,2.163 3.125,2.877 -0.009,-0.343 -0.014,-0.681 -0.017,-1.015 -0.803,-0.289 -1.317,-1.412 -0.268,-1.643 -0.19,0.618 0.015,0.75 0.263,0.83 l -0.053,-15.905 -0.952,0.004 c 0.022,0.489 0.18,0.814 0.348,1.124 -0.234,0.001 -0.471,0.002 -0.704,0.003 -0.321,-0.497 -0.368,-0.873 0.013,-1.126 l -3.816,0.013 c -0.135,0.957 -0.699,1.391 -1.375,1.689 -0.052,-1.744 -0.741,-1.55 -1.411,-1.314 l 0.062,18.79 c 0.022,6.837 3.164,11.895 10.355,11.871 3.495,-0.012 6.471,-1.383 8.763,-3.597 -0.456,-1.022 0.438,-2.41 0.756,-3.669 1.131,-0.772 2.636,1.043 1.109,1.338 -0.034,-0.407 -0.087,-0.794 -0.555,-0.67 0.788,0.916 0.497,1.556 -0.01,2.139 l 0.012,3.72 7.487,-0.025 -0.037,-11.116 c -0.541,0.291 -1.289,-0.322 -1.531,-1.055 1.108,-0.495 0.858,0.669 1.413,0.855 0,-0.103 0.051,-0.204 0.117,-0.251 l -0.05,-15.003 c -0.383,-0.386 -0.43,-0.988 -0.809,0.244 z m -22.224,9.402 c 0.216,-0.026 0.419,-0.065 0.353,-0.431 -0.931,0.132 -0.915,-0.895 -1.066,-1.715 0.526,-0.684 1.443,-0.321 1.764,0.424 -1.174,-0.106 0.106,2.835 -1.051,1.722 z m -1.801,-11.166 c 0.749,1.176 0.608,-1.157 1.764,-0.006 -0.018,-0.652 0.667,1.03 1.064,2.145 -0.715,0.131 -0.934,0.865 -1.406,1.294 0.772,-1.615 -0.72,-0.936 -0.007,-2.147 -0.352,10e-4 -0.705,0.002 -1.058,0.004 0.021,0.55 0.455,0.591 0.357,1.286 -1.084,0.43 -1.079,-3.977 -0.714,-2.576 z m 0.031,12.405 c -0.48,-0.071 -0.449,2.489 -1.056,0.863 0.476,0.073 0.449,-2.488 1.056,-0.863 z m -0.673,-11.445 c -0.032,0.676 0.052,1.489 -0.703,1.291 -0.022,-0.738 0.268,-1.101 0.703,-1.291 z m 0.457,19.654 c -0.363,-0.563 -0.352,-1.583 -0.713,-2.146 0.853,-0.278 1.329,2.043 0.713,2.146 z m 3.288,1.449 c 0.609,-0.025 0.904,0.328 1.061,0.856 -0.607,0.026 -0.906,-0.329 -1.061,-0.856 z m 18.759,-12.71 c 0.087,0.613 0.585,0.723 0.712,1.288 -0.887,-0.547 -1.107,0.22 -1.414,-0.427 0.466,-0.007 0.319,-0.752 0.702,-0.861 z m -3.329,-8.829 c -2.591,-1.386 3.047,-2.386 0,0 l 0,0 z m 1.285,14.877 c 0.514,-1.676 -0.087,-1.368 -0.708,-0.425 -0.918,-1.128 0.57,-0.339 0.349,-1.72 -0.721,0.129 -0.69,1.163 -1.409,1.293 0.056,-1.357 0.239,-2.564 1.405,-2.584 0.49,0.265 0.056,1.654 0.71,1.719 0.431,-0.621 1.343,-0.654 1.762,-1.296 -0.596,1.605 0.209,0.679 0.359,2.147 -1.395,-1.004 -1.077,0.812 -2.468,0.866 z m 4.336,-3.896 c -1.054,0.053 -1.183,0.346 -1.051,2.579 -2.225,-0.318 0.085,-3.072 -0.016,-4.729 -0.552,1.169 -2.107,-1.053 -1.065,-1.711 0.351,1.726 2.359,1.421 2.132,3.861 z"
   style="fill:#243446" />
	</g>
	<g
   id="g65">
		<path
   id="path67"
   d="m 246.803,59.725 c 0.064,0.206 0.085,0.469 0.02,0.833 -0.727,-0.115 -1.753,0.133 -1.856,-0.75 0.309,-0.034 0.589,-0.108 0.622,-0.477 -0.952,-0.247 -1.994,-0.387 -3.152,-0.383 -4.126,0.014 -7.482,1.379 -9.945,4.865 h -0.118 l -0.014,-4.125 -7.486,0.025 0.032,9.596 c 1.054,-0.104 1.578,-0.56 2.348,0.01 -0.575,0.244 -1.681,1.077 -2.345,0.766 l 0,0.217 c 0.823,0.022 0.636,0.674 1.304,-0.011 -0.206,0.978 1.679,2.499 0.71,1.716 -0.665,-0.453 -1.652,-0.513 -2.013,-1.341 l 0.064,19.402 7.899,-0.025 -0.039,-11.745 c -0.177,0.18 -0.498,0.195 -0.992,-0.249 0.467,-0.717 0.803,-0.792 0.989,-0.633 l -0.003,-0.756 c -1.105,0.479 -2.169,1 -2.732,2.018 -2.517,-2.871 -3.87,-1.972 -2.575,-7.01 2.505,0.142 3.776,1.524 5.322,2.629 0.139,-3.139 1.109,-7.214 4.287,-8.663 -0.179,-0.13 -0.332,-0.294 -0.427,-0.527 0.466,0.072 1.222,-0.206 1.427,0.188 0.496,-0.124 1.024,-0.205 1.613,-0.207 5.07,-0.017 5.146,4.993 5.158,8.706 l 0.031,9.397 c 0.161,-0.111 0.378,-0.22 0.67,-0.33 1.721,0.022 2.151,3.614 0.014,4.132 0.069,-0.961 -0.345,-1.674 -0.678,-2.249 l 0.017,5.259 7.897,-0.025 -0.063,-19.156 c -0.016,-5.249 -1.877,-9.436 -5.986,-11.097 z M 231.2,78.233 c 0.39,2.278 -1.071,0.51 0,0 l 0,0 z m -1.724,-7.476 c -1.751,-0.569 -0.559,-2.029 0,0 l 0,0 z m -2.992,-0.461 c 0.66,0.412 1.175,-1.289 1.412,-0.005 -0.216,0.129 -1.356,1.077 -1.412,0.005 z m 1.735,-9.028 c 0.358,0.006 0.446,0.755 0.002,0.86 0.036,-0.482 -0.513,-0.667 -0.002,-0.86 z m 0.422,9.357 c 0.044,0.811 1.168,0.295 1.065,1.286 -0.609,0.108 -2.093,-0.805 -1.065,-1.286 z m 1.344,1.471 c 0.057,-0.506 -0.063,-1.218 0.351,-1.29 -0.051,0.505 0.063,1.221 -0.351,1.29 z"
   style="fill:#243446" />
	</g>
	<g
   id="g69">
		<path
   id="path71"
   d="m 260.698,52.464 c 0.694,0.125 0.697,-0.583 1.055,-0.864 0.543,0.82 2.603,1.16 1.06,-0.004 0.668,0.094 0.778,-0.483 1.407,-0.433 l -0.016,-4.666 -7.899,0.026 0.025,7.543 5.06,-0.017 c -0.106,-0.68 -0.931,-0.482 -0.692,-1.585 z"
   style="fill:#243446" />
	</g>
	<g
   id="g73">
		<path
   id="path75"
   d="m 262.097,64.276 c 0.412,-0.823 1.057,-1.353 2.161,-1.286 l -10e-4,-0.303 c -1.098,-0.839 -2.729,0.12 -4.095,-1.77 0.054,-0.441 0.106,-0.882 0.162,-1.322 l -3.977,0.013 0.101,30.355 7.899,-0.026 -0.079,-23.885 c -0.02,0.016 -0.031,0.024 -0.05,0.045 -0.718,-0.597 -0.58,-1.869 -2.121,-1.821 z m -4.982,3.008 c 1.106,-0.496 0.856,0.671 1.414,0.854 -0.003,-0.239 0.284,-0.488 0.354,-0.001 -0.531,0.688 -1.488,-0.005 -1.768,-0.853 z m 3.134,0.082 c -0.021,-0.262 -0.055,-0.51 -0.353,-0.429 0.855,0.994 -0.277,1.481 -0.699,2.151 -0.585,-0.666 0.115,-1.677 0.344,-2.579 0.721,-0.495 1.688,0.669 0.708,0.857 z m 0.572,1.142 c -1.078,-1.444 1.302,-1.307 0,0 l 0,0 z m 0.338,-4.298 c -1.173,-0.621 1.373,-1.075 0,0 l 0,0 z"
   style="fill:#243446" />
	</g>
	<g
   id="g77">
		<path
   id="path79"
   d="m 281.108,64.899 c 1.156,-1.168 2.11,-1.044 3.085,-1.141 l -1.558,-4.237 -4.302,0.015 -0.029,-8.606 -7.89,2.562 0.021,6.07 -5.729,0.02 c 0.572,1.149 1.772,1.902 2.369,2.202 0.006,-0.008 0.008,-0.017 0.015,-0.023 0.515,0.226 0.381,0.225 -0.015,0.023 -0.791,0.998 0.029,2.156 0.902,3.562 l 2.476,-0.009 0.016,4.455 c 1.146,-0.123 2.031,0.862 2.119,-1.899 0.402,-1.006 3.173,4.32 0.884,5.575 -1.3,-0.729 0.058,-1.413 0.278,-2.311 -1.812,-0.761 -2.517,-0.105 -3.275,0.479 l 0.03,9.146 c 0.02,6.013 3.449,9.831 9.639,9.811 2.357,-0.008 4.186,-0.25 5.834,-0.726 l -0.257,-6.247 c -0.823,0.532 -2.176,0.831 -3.592,0.836 -0.045,0 -0.084,-0.005 -0.125,-0.006 -1.394,0.386 -1.885,1.868 -2.866,2.758 1.639,-3.429 -1.388,-2.12 -0.113,-4.49 -0.03,-0.062 -0.065,-0.123 -0.095,-0.188 -0.699,0.002 -1.408,0.004 -2.112,0.007 0.047,1.197 0.994,1.288 0.778,2.805 -2.361,0.935 -2.35,-8.666 -1.557,-5.613 1.202,1.887 1.356,-0.364 2.358,-0.686 l -0.007,-1.99 c -0.52,0.038 -1.202,-0.119 -1.304,0.427 0.18,1.211 1.324,0.993 0.71,1.285 0.164,0.171 -2.728,-0.47 -1.766,-0.423 1.217,-0.725 0.798,-1.523 2.108,-2.585 0.021,0.225 0.055,0.42 0.248,0.43 l -0.036,-10.874 3.217,-0.011 c -0.15,-0.101 -0.304,-0.227 -0.459,-0.403 z m -7.27,21.138 c -1.379,-1.062 1.169,-0.63 0,0 l 0,0 z m 2.535,-10.707 c 0.036,-0.481 -0.516,-0.667 -0.002,-0.857 0.356,0.002 0.446,0.752 0.002,0.857 z m -0.38,-8.591 c -0.021,-0.739 0.269,-1.102 0.699,-1.292 0.022,0.741 -0.265,1.105 -0.699,1.292 z"
   style="fill:#243446" />
	</g>
	<g
   id="g81">
		<path
   id="path83"
   d="m 304.804,80.709 c -0.552,1.166 -2.11,-1.055 -1.066,-1.715 0.284,1.392 1.636,1.465 2.035,2.713 l 8.336,-22.29 -8.014,0.026 -7.238,22.187 h -0.118 l -2.688,-8.066 c -0.689,0.201 -1.231,-1.423 -0.626,-1.303 0.016,0.29 0.181,0.393 0.354,0.49 l -4.421,-13.259 -6.012,0.021 0.013,3.935 c 0.291,-0.144 0.588,-0.347 0.901,-0.658 -0.644,2.953 -0.333,1.652 1.148,0.693 0.002,1.969 -0.911,2.829 -2.072,3.39 l 0.875,2.375 c 0.1,-1.161 0.654,-1.777 1.435,-2.118 -0.06,1.318 0.07,2.866 -1.224,2.693 l 1.402,3.808 c 1.094,-0.297 2.348,0.459 2.879,1.688 -1.364,-0.124 -1.249,1.59 -1.186,2.919 l 4.834,13.133 c 0.011,3.244 -1.927,5.431 -5.11,5.441 -1.945,0.006 -3.065,-0.167 -4.067,-0.518 l -0.512,5.836 c 1.829,0.525 3.714,0.814 5.603,0.808 7.079,-0.023 9.412,-4.893 11.52,-10.523 -0.667,0.231 -0.837,1.487 -2.18,1.538 0.694,-2.267 -0.117,-1.851 -0.956,-0.575 -1.244,-1.525 0.769,-0.459 0.472,-2.325 -0.976,0.173 -0.936,1.57 -1.905,1.747 0.076,-1.837 0.323,-3.468 1.899,-3.492 0.66,0.354 0.078,2.236 0.961,2.323 0.584,-0.842 1.819,-0.887 2.382,-1.753 -0.315,0.847 -0.338,1.171 -0.24,1.371 0.202,-0.556 0.407,-1.113 0.617,-1.673 l 0.217,-0.585 c -0.245,-0.396 -0.491,-0.788 -0.616,-1.326 0.661,-0.297 0.838,-0.001 0.991,0.323 l 0.995,-2.655 c -1.508,-0.603 0.474,-3.087 0.382,-4.624 z m -13.283,-14.88 c -0.016,0.59 0.168,0.941 0.358,1.286 -0.235,0 -0.472,0.001 -0.705,0.002 -0.399,-0.615 -0.386,-1.046 0.347,-1.288 z m 1.114,16.754 c -1.019,0.077 -1.951,-1.444 -0.711,-1.718 -0.43,1.394 1.144,0.324 0.711,1.718 z m 2.101,-6.023 c 0.452,-1.069 -1.045,-1.78 -0.008,-2.147 0.078,0.331 0.011,0.846 0.354,0.856 0.019,-0.261 0.05,-0.509 0.351,-0.431 -0.045,0.801 -0.226,1.436 -0.697,1.722 z m 8.134,5.689 c -2.043,0.46 -0.152,-1.858 0,0 l 0,0 z m -0.711,-1.417 c 0.466,-0.008 0.321,-0.755 0.701,-0.863 0.089,0.613 0.588,0.725 0.714,1.289 -0.885,-0.546 -1.106,0.22 -1.415,-0.426 z m 1.266,1.523 c -1.172,-0.625 1.373,-1.076 0,0 l 0,0 z"
   style="fill:#243446" />
	</g>
</g><g
     id="g85">
	<g
   id="g87">
		<path
   id="path89"
   d="m 48.339,22.783 c -1.262,1.577 -0.209,-1.626 -1.088,-1.774 -0.089,0.83 -0.603,-0.251 -0.732,0.444 -0.096,0.644 0.57,1.968 0.712,2.985 0.288,-0.072 0.566,-0.152 0.844,-0.232 -0.195,-0.422 -0.315,-0.248 0.264,-1.423 z"
   style="fill:#4a5d75" />
	</g>
	<g
   id="g91">
		<path
   id="path93"
   d="m 40.068,44.129 c -0.083,-0.042 -0.154,-0.082 -0.229,-0.123 -0.274,0.006 -0.549,0.012 -0.826,0.012 h -0.567 c 0.228,0.385 0.518,0.834 0.895,1.442 0.457,-0.182 0.744,-0.571 0.727,-1.331 z"
   style="fill:#4a5d75" />
	</g>
	<g
   id="g95">
		<path
   id="path97"
   d="m 51.839,45.083 c 0.385,-1.154 -0.663,-0.654 0.575,-1.216 0.654,0.201 1.179,0.993 1.064,1.489 0.145,0.064 0.31,-0.194 0.455,-0.13 0.12,-0.842 -0.455,-0.69 0.341,-1.714 0.375,0.241 1.177,0.75 1.838,1.271 1.691,-1.97 2.694,-4.622 2.694,-8.198 0,-6.398 -4.002,-10.638 -9.87,-11.761 -0.744,0.2 -0.927,0.447 -1.259,0.419 0.014,0.147 -1.415,0.411 -1.52,-1.133 0.281,-0.1 0.717,-0.013 0.727,-0.442 -0.693,-0.19 -0.912,-0.955 -1.82,-0.886 -0.8,2.143 -2.006,1.716 -2.913,3.545 -0.286,-1.739 -0.661,-1.303 -1.458,-1.773 0.758,-0.248 0.774,-0.69 0.365,-1.329 1.068,0.116 1.352,0.612 1.82,0 -0.57,-0.243 -0.094,-1.761 -0.562,-2.13 -0.274,0.029 -0.552,0.056 -0.834,0.077 0.545,1.323 -0.607,1.076 -1.054,0.062 -0.058,0.003 -0.114,0.007 -0.172,0.01 -0.323,0.977 -0.572,2.042 -0.655,3.31 0.446,0.049 0.863,0.131 0.73,0.885 -0.365,0 -0.73,0 -1.096,0 -0.049,-0.824 -0.238,-1.479 -0.726,-1.771 0.249,1.191 -0.753,0.856 -1.093,1.329 -1.023,-0.927 0.057,-1.664 -1.093,-2.215 0.314,-0.542 0.451,-1.03 0.468,-1.489 H 33.652 V 5.859 h 7.503 c 4.145,0 9.218,1.501 9.218,7.432 0,3.295 -1.18,5.237 -3.099,6.385 0.161,0.321 0.262,0.41 0.701,-0.44 -0.032,1.21 0.606,0.893 0,1.773 1.357,0.036 1.175,0.663 1.82,-0.444 -0.116,1.028 0.06,1.701 0.364,2.219 -0.551,0.049 -0.756,0.52 -0.911,1.051 3.033,-1.058 5.375,-2.683 6.78,-5.101 -0.646,-0.143 -1.335,-0.229 -1.235,-1.278 0.634,0.033 1.132,-0.1 1.455,-0.444 0.115,-0.282 0.519,0.145 0.519,0.145 0.49,-1.323 0.753,-2.838 0.752,-4.579 C 57.521,3.358 50.375,0 40.013,0 H 26.508 v 43.356 c 0.523,0.098 0.725,-0.279 0.976,0.251 -0.363,0.327 -0.583,0.828 -0.976,1.119 v 5.15 h 7.719 c 0.04,-0.545 0.176,-0.972 0.38,-1.315 -1.809,-1.731 -3.209,0.826 -2.548,-1.33 -0.468,0.024 -0.504,0.57 -1.095,0.443 -0.59,-0.903 -1.181,-1.812 -1.455,-3.102 1.396,0.082 0.133,-0.362 0.364,-1.329 1.63,-0.654 1.119,1.296 2.548,0.885 0.006,-1.259 0.697,-1.685 1.232,-2.3 V 27.153 h 4.645 c 3.725,0 7.677,0.405 10.219,2.434 0.028,-0.055 0.056,-0.111 0.084,-0.165 0.243,0 0.487,0 0.729,0 -0.063,0.646 0.211,0.879 0.323,1.313 0.5,0.642 0.894,1.397 1.164,2.281 0.185,-0.053 0.419,0.032 0.658,0.426 -0.192,0.136 -0.348,0.218 -0.48,0.269 0.145,0.679 0.237,1.409 0.237,2.231 0,3.378 -1.465,5.398 -3.738,6.575 -0.017,0.483 0.017,1.027 -0.347,1.09 0.034,-0.307 0.008,-0.685 0.065,-0.961 -1.589,0.755 -3.535,1.134 -5.644,1.284 0.004,0.386 -0.069,0.675 -0.407,0.643 -0.034,-0.125 -0.146,-0.366 -0.286,-0.604 -0.197,0.01 -0.393,0.021 -0.592,0.027 0.45,0.593 0.997,1.065 0.878,2.351 -1.468,-0.175 -1.618,0.822 -2.184,-0.444 -0.76,1.314 0.788,4.029 0,3.545 -1.728,-1.452 -1.17,-2.024 -3.278,-0.887 0.433,0.237 0.638,0.751 0.802,1.315 h 3.297 c 0.53,0 1.054,-0.012 1.576,-0.026 -1.073,-0.935 -1.75,-2.093 -0.945,-1.175 1.76,-1.764 2.997,-0.243 4.665,-1.892 -0.916,1.655 -0.292,1.087 1.049,0.226 0,0.199 -0.012,0.391 -0.033,0.573 0,0 -0.015,0.028 0.083,0.028 0.098,0 0.163,0.032 0.292,-0.081 0.129,-0.113 0.243,-0.243 0.243,-0.243 l 0.343,-0.329 -0.229,-0.385 0.568,0.13 c 0,0 0.016,0.291 0.259,0.048 0.243,-0.243 0.081,-0.521 0.081,-0.521 0,0 0.585,-0.323 0.601,-0.274 0.016,0.049 0.065,0.309 0.114,0.341 0.049,0.032 1.273,0.257 1.273,0.257 l 2.117,-0.631 -0.016,-0.839 z"
   style="fill:#4a5d75" />
	</g>
</g></g>
</svg>